<svg width="129" height="42" viewBox="0 0 129 42" fill="none" xmlns="http://www.w3.org/2000/svg">
<path d="M9.78516 41.7188C4.6582 41.7188 0 38.9649 0 33.1934C0 24.8145 9.96094 10.5176 14.2676 3.57422C13.5645 1.81641 12.6562 0.322265 11.4258 0H24.3164L33.2812 32.7539C33.9551 35.2442 35.2734 40.459 37.1484 41.25C36.0645 41.4844 34.7754 41.6309 33.4277 41.6309C29.1797 41.6309 24.3457 40.2539 23.3789 36.1817L22.4707 32.8711C21.0352 38.6719 15.1465 41.7188 9.78516 41.7188ZM16.6406 36.5625C18.7793 36.5332 20.8594 34.7754 22.0898 31.4356L15.5859 7.73438C15.3809 7.03125 15.1758 6.21094 14.9121 5.39063C13.0664 10.5762 10.9277 19.5411 10.9277 26.543C10.9277 32.1973 12.334 36.5625 16.4648 36.5625H16.6406ZM46.0547 10.459C43.418 10.459 41.25 8.32031 41.25 5.6543C41.25 3.01758 43.418 0.849609 46.0547 0.849609C48.7207 0.849609 50.8594 3.01758 50.8594 5.6543C50.8594 8.32031 48.7207 10.459 46.0547 10.459ZM43.3594 41.6309C41.9531 41.6309 40.5176 41.4551 39.3457 41.1329C40.7227 40.7227 41.2793 38.9942 41.2793 37.4414V22.8223C41.2793 20.0977 40.8105 19.3067 38.7305 18.0762L50.8594 13.125V36.1231C50.8594 40.2832 47.0801 41.6309 43.3594 41.6309ZM63.3691 41.6309C59.6484 41.6309 55.8691 40.3125 55.8691 36.1817V9.69726C55.8691 6.97266 55.4297 6.18164 53.3203 4.95117L65.4785 0V37.4707C65.4785 39.0235 66.0059 40.7227 67.3828 41.1329C66.1816 41.4551 64.7754 41.6309 63.3691 41.6309ZM83.0566 41.6309C75.2051 41.6309 68.8477 35.2442 68.8477 27.3633C68.8477 19.4825 75.2051 13.0957 83.0566 13.0957C90.9082 13.0957 97.2656 19.4825 97.2656 27.3633C97.2656 35.2442 90.9082 41.6309 83.0566 41.6309ZM88.5645 38.4082C89.5898 38.4082 90.2051 37.5586 90.2051 36.1231C90.2051 30.4395 81.6504 16.3477 77.5488 16.3184C76.582 16.3184 75.9082 17.1094 75.9082 18.6036C75.9082 24.2871 84.4629 38.4082 88.5645 38.4082ZM114.521 41.6309C106.67 41.6309 100.312 35.2442 100.312 27.3633C100.312 19.4825 106.67 13.0957 114.521 13.0957C122.373 13.0957 128.73 19.4825 128.73 27.3633C128.73 35.2442 122.373 41.6309 114.521 41.6309ZM120.029 38.4082C121.055 38.4082 121.67 37.5586 121.67 36.1231C121.67 30.4395 113.115 16.3477 109.014 16.3184C108.047 16.3184 107.373 17.1094 107.373 18.6036C107.373 24.2871 115.928 38.4082 120.029 38.4082Z" fill="#D9D9D9"/>
</svg>
